<?xml version="1.0" encoding="UTF-8"?>
<svg xmlns="http://www.w3.org/2000/svg" width="700" height="700" viewBox="0 0 700 700">
<defs>
<clipPath id="clip1">
  <rect x="130.0" y="110.0" width="480.0" height="470.0"/>
</clipPath>
</defs>
<rect width="100%" height="100%" fill="#ffffff"/>
<rect x="70.0" y="70.0" width="560.0" height="560.0" fill="#ffffff" stroke="#1f77b4" stroke-width="1.5" stroke-linecap="round" stroke-linejoin="round"/>
<line x1="180.91" y1="580.0" x2="180.91" y2="110.0" stroke="#c8c8c8" stroke-width="0.5" stroke-linecap="round" stroke-linejoin="round"/>
<line x1="239.09" y1="580.0" x2="239.09" y2="110.0" stroke="#c8c8c8" stroke-width="0.5" stroke-linecap="round" stroke-linejoin="round"/>
<line x1="297.27" y1="580.0" x2="297.27" y2="110.0" stroke="#c8c8c8" stroke-width="0.5" stroke-linecap="round" stroke-linejoin="round"/>
<line x1="355.45" y1="580.0" x2="355.45" y2="110.0" stroke="#c8c8c8" stroke-width="0.5" stroke-linecap="round" stroke-linejoin="round"/>
<line x1="413.64" y1="580.0" x2="413.64" y2="110.0" stroke="#c8c8c8" stroke-width="0.5" stroke-linecap="round" stroke-linejoin="round"/>
<line x1="471.82" y1="580.0" x2="471.82" y2="110.0" stroke="#c8c8c8" stroke-width="0.5" stroke-linecap="round" stroke-linejoin="round"/>
<line x1="530.0" y1="580.0" x2="530.0" y2="110.0" stroke="#c8c8c8" stroke-width="0.5" stroke-linecap="round" stroke-linejoin="round"/>
<line x1="588.18" y1="580.0" x2="588.18" y2="110.0" stroke="#c8c8c8" stroke-width="0.5" stroke-linecap="round" stroke-linejoin="round"/>
<line x1="130.0" y1="558.64" x2="610.0" y2="558.64" stroke="#c8c8c8" stroke-width="0.5" stroke-linecap="round" stroke-linejoin="round"/>
<line x1="130.0" y1="515.91" x2="610.0" y2="515.91" stroke="#c8c8c8" stroke-width="0.5" stroke-linecap="round" stroke-linejoin="round"/>
<line x1="130.0" y1="473.18" x2="610.0" y2="473.18" stroke="#c8c8c8" stroke-width="0.5" stroke-linecap="round" stroke-linejoin="round"/>
<line x1="130.0" y1="430.45" x2="610.0" y2="430.45" stroke="#c8c8c8" stroke-width="0.5" stroke-linecap="round" stroke-linejoin="round"/>
<line x1="130.0" y1="387.73" x2="610.0" y2="387.73" stroke="#c8c8c8" stroke-width="0.5" stroke-linecap="round" stroke-linejoin="round"/>
<line x1="130.0" y1="345.0" x2="610.0" y2="345.0" stroke="#c8c8c8" stroke-width="0.5" stroke-linecap="round" stroke-linejoin="round"/>
<line x1="130.0" y1="302.27" x2="610.0" y2="302.27" stroke="#c8c8c8" stroke-width="0.5" stroke-linecap="round" stroke-linejoin="round"/>
<line x1="130.0" y1="259.55" x2="610.0" y2="259.55" stroke="#c8c8c8" stroke-width="0.5" stroke-linecap="round" stroke-linejoin="round"/>
<line x1="130.0" y1="216.82" x2="610.0" y2="216.82" stroke="#c8c8c8" stroke-width="0.5" stroke-linecap="round" stroke-linejoin="round"/>
<line x1="130.0" y1="174.09" x2="610.0" y2="174.09" stroke="#c8c8c8" stroke-width="0.5" stroke-linecap="round" stroke-linejoin="round"/>
<line x1="130.0" y1="131.36" x2="610.0" y2="131.36" stroke="#c8c8c8" stroke-width="0.5" stroke-linecap="round" stroke-linejoin="round"/>
<line x1="130.0" y1="580.0" x2="610.0" y2="580.0" stroke="#000000" stroke-width="1.0" stroke-linecap="round" stroke-linejoin="round"/>
<line x1="130.0" y1="110.0" x2="130.0" y2="580.0" stroke="#000000" stroke-width="1.0" stroke-linecap="round" stroke-linejoin="round"/>
<line x1="180.91" y1="580.0" x2="180.91" y2="585.0" stroke="#000000" stroke-width="1.0" stroke-linecap="round" stroke-linejoin="round"/>
<text x="180.91" y="589.0" font-family="Arial, sans-serif" font-size="10.0" font-weight="normal" font-style="normal" fill="#000000" text-anchor="middle" dominant-baseline="text-before-edge">-1.4</text>
<line x1="239.09" y1="580.0" x2="239.09" y2="585.0" stroke="#000000" stroke-width="1.0" stroke-linecap="round" stroke-linejoin="round"/>
<text x="239.09" y="589.0" font-family="Arial, sans-serif" font-size="10.0" font-weight="normal" font-style="normal" fill="#000000" text-anchor="middle" dominant-baseline="text-before-edge">-1.2</text>
<line x1="297.27" y1="580.0" x2="297.27" y2="585.0" stroke="#000000" stroke-width="1.0" stroke-linecap="round" stroke-linejoin="round"/>
<text x="297.27" y="589.0" font-family="Arial, sans-serif" font-size="10.0" font-weight="normal" font-style="normal" fill="#000000" text-anchor="middle" dominant-baseline="text-before-edge">-1</text>
<line x1="355.45" y1="580.0" x2="355.45" y2="585.0" stroke="#000000" stroke-width="1.0" stroke-linecap="round" stroke-linejoin="round"/>
<text x="355.45" y="589.0" font-family="Arial, sans-serif" font-size="10.0" font-weight="normal" font-style="normal" fill="#000000" text-anchor="middle" dominant-baseline="text-before-edge">-0.8</text>
<line x1="413.64" y1="580.0" x2="413.64" y2="585.0" stroke="#000000" stroke-width="1.0" stroke-linecap="round" stroke-linejoin="round"/>
<text x="413.64" y="589.0" font-family="Arial, sans-serif" font-size="10.0" font-weight="normal" font-style="normal" fill="#000000" text-anchor="middle" dominant-baseline="text-before-edge">-0.6</text>
<line x1="471.82" y1="580.0" x2="471.82" y2="585.0" stroke="#000000" stroke-width="1.0" stroke-linecap="round" stroke-linejoin="round"/>
<text x="471.82" y="589.0" font-family="Arial, sans-serif" font-size="10.0" font-weight="normal" font-style="normal" fill="#000000" text-anchor="middle" dominant-baseline="text-before-edge">-0.4</text>
<line x1="530.0" y1="580.0" x2="530.0" y2="585.0" stroke="#000000" stroke-width="1.0" stroke-linecap="round" stroke-linejoin="round"/>
<text x="530.0" y="589.0" font-family="Arial, sans-serif" font-size="10.0" font-weight="normal" font-style="normal" fill="#000000" text-anchor="middle" dominant-baseline="text-before-edge">-0.2</text>
<line x1="588.18" y1="580.0" x2="588.18" y2="585.0" stroke="#000000" stroke-width="1.0" stroke-linecap="round" stroke-linejoin="round"/>
<text x="588.18" y="589.0" font-family="Arial, sans-serif" font-size="10.0" font-weight="normal" font-style="normal" fill="#000000" text-anchor="middle" dominant-baseline="text-before-edge">-2.8e-016</text>
<line x1="125.0" y1="558.64" x2="130.0" y2="558.64" stroke="#000000" stroke-width="1.0" stroke-linecap="round" stroke-linejoin="round"/>
<text x="121.0" y="558.64" font-family="Arial, sans-serif" font-size="10.0" font-weight="normal" font-style="normal" fill="#000000" text-anchor="end" dominant-baseline="middle">-1000</text>
<line x1="125.0" y1="515.91" x2="130.0" y2="515.91" stroke="#000000" stroke-width="1.0" stroke-linecap="round" stroke-linejoin="round"/>
<text x="121.0" y="515.91" font-family="Arial, sans-serif" font-size="10.0" font-weight="normal" font-style="normal" fill="#000000" text-anchor="end" dominant-baseline="middle">-800</text>
<line x1="125.0" y1="473.18" x2="130.0" y2="473.18" stroke="#000000" stroke-width="1.0" stroke-linecap="round" stroke-linejoin="round"/>
<text x="121.0" y="473.18" font-family="Arial, sans-serif" font-size="10.0" font-weight="normal" font-style="normal" fill="#000000" text-anchor="end" dominant-baseline="middle">-600</text>
<line x1="125.0" y1="430.45" x2="130.0" y2="430.45" stroke="#000000" stroke-width="1.0" stroke-linecap="round" stroke-linejoin="round"/>
<text x="121.0" y="430.45" font-family="Arial, sans-serif" font-size="10.0" font-weight="normal" font-style="normal" fill="#000000" text-anchor="end" dominant-baseline="middle">-400</text>
<line x1="125.0" y1="387.73" x2="130.0" y2="387.73" stroke="#000000" stroke-width="1.0" stroke-linecap="round" stroke-linejoin="round"/>
<text x="121.0" y="387.73" font-family="Arial, sans-serif" font-size="10.0" font-weight="normal" font-style="normal" fill="#000000" text-anchor="end" dominant-baseline="middle">-200</text>
<line x1="125.0" y1="345.0" x2="130.0" y2="345.0" stroke="#000000" stroke-width="1.0" stroke-linecap="round" stroke-linejoin="round"/>
<text x="121.0" y="345.0" font-family="Arial, sans-serif" font-size="10.0" font-weight="normal" font-style="normal" fill="#000000" text-anchor="end" dominant-baseline="middle">0</text>
<line x1="125.0" y1="302.27" x2="130.0" y2="302.27" stroke="#000000" stroke-width="1.0" stroke-linecap="round" stroke-linejoin="round"/>
<text x="121.0" y="302.27" font-family="Arial, sans-serif" font-size="10.0" font-weight="normal" font-style="normal" fill="#000000" text-anchor="end" dominant-baseline="middle">200</text>
<line x1="125.0" y1="259.55" x2="130.0" y2="259.55" stroke="#000000" stroke-width="1.0" stroke-linecap="round" stroke-linejoin="round"/>
<text x="121.0" y="259.55" font-family="Arial, sans-serif" font-size="10.0" font-weight="normal" font-style="normal" fill="#000000" text-anchor="end" dominant-baseline="middle">400</text>
<line x1="125.0" y1="216.82" x2="130.0" y2="216.82" stroke="#000000" stroke-width="1.0" stroke-linecap="round" stroke-linejoin="round"/>
<text x="121.0" y="216.82" font-family="Arial, sans-serif" font-size="10.0" font-weight="normal" font-style="normal" fill="#000000" text-anchor="end" dominant-baseline="middle">600</text>
<line x1="125.0" y1="174.09" x2="130.0" y2="174.09" stroke="#000000" stroke-width="1.0" stroke-linecap="round" stroke-linejoin="round"/>
<text x="121.0" y="174.09" font-family="Arial, sans-serif" font-size="10.0" font-weight="normal" font-style="normal" fill="#000000" text-anchor="end" dominant-baseline="middle">800</text>
<line x1="125.0" y1="131.36" x2="130.0" y2="131.36" stroke="#000000" stroke-width="1.0" stroke-linecap="round" stroke-linejoin="round"/>
<text x="121.0" y="131.36" font-family="Arial, sans-serif" font-size="10.0" font-weight="normal" font-style="normal" fill="#000000" text-anchor="end" dominant-baseline="middle">1000</text>
<text x="370.0" y="615.0" font-family="Arial, sans-serif" font-size="12.0" font-weight="normal" font-style="normal" fill="#000000" text-anchor="middle" dominant-baseline="alphabetic">Real Axis</text>
<text x="85.0" y="345.0" font-family="Arial, sans-serif" font-size="12.0" font-weight="normal" font-style="normal" fill="#000000" text-anchor="middle" dominant-baseline="alphabetic" transform="rotate(-90.0 85.0 345.0)">Imaginary Axis</text>
<text x="370.0" y="100.0" font-family="Arial, sans-serif" font-size="14.0" font-weight="bold" font-style="normal" fill="#000000" text-anchor="middle" dominant-baseline="text-after-edge">Nyquist Diagram</text>
<g clip-path="url(#clip1)">
<polyline points="151.82,558.64 151.82,552.8 151.82,547.13 151.82,541.61 151.82,536.24 151.82,531.02 151.82,525.94 151.82,521.0 151.82,516.19 151.82,511.52 151.82,506.97 151.82,502.55 151.82,498.24 151.82,494.06 151.82,489.99 151.82,486.03 151.82,482.18 151.82,478.43 151.82,474.79 151.82,471.25 151.82,467.8 151.82,464.45 151.82,461.18 151.82,458.01 151.82,454.92 151.82,451.92 151.82,449.0 151.82,446.16 151.82,443.4 151.82,440.71 151.82,438.1 151.82,435.56 151.82,433.08 151.82,430.68 151.82,428.34 151.82,426.06 151.82,423.85 151.82,421.7 151.82,419.6 151.82,417.57 151.82,415.58 151.82,413.66 151.82,411.78 151.82,409.96 151.82,408.18 151.82,406.46 151.82,404.78 151.82,403.15 151.83,401.56 151.83,400.02 151.83,398.51 151.83,397.05 151.83,395.63 151.83,394.25 151.83,392.9 151.83,391.59 151.83,390.32 151.83,389.08 151.83,387.88 151.83,386.71 151.83,385.57 151.83,384.46 151.83,383.38 151.84,382.34 151.84,381.32 151.84,380.33 151.84,379.36 151.84,378.42 151.84,377.51 151.84,376.62 151.84,375.76 151.85,374.92 151.85,374.1 151.85,373.31 151.85,372.53 151.85,371.78 151.85,371.05 151.86,370.34 151.86,369.65 151.86,368.97 151.86,368.32 151.87,367.68 151.87,367.06 151.87,366.46 151.87,365.87 151.88,365.3 151.88,364.75 151.89,364.21 151.89,363.68 151.89,363.17 151.9,362.68 151.9,362.19 151.91,361.72 151.91,361.27 151.92,360.82 151.92,360.39 151.93,359.97 151.93,359.56 151.94,359.16 151.95,358.78 151.96,358.4 151.96,358.03 151.97,357.68 151.98,357.33 151.99,356.99 152.0,356.67 152.01,356.35 152.02,356.04 152.03,355.73 152.05,355.44 152.06,355.16 152.07,354.88 152.09,354.61 152.1,354.34 152.12,354.09 152.14,353.84 152.15,353.6 152.17,353.36 152.19,353.13 152.21,352.91 152.24,352.69 152.26,352.48 152.29,352.28 152.31,352.08 152.34,351.89 152.37,351.7 152.4,351.51 152.43,351.34 152.47,351.16 152.51,350.99 152.55,350.83 152.59,350.67 152.63,350.51 152.68,350.36 152.73,350.21 152.78,350.07 152.83,349.93 152.89,349.8 152.95,349.66 153.02,349.54 153.08,349.41 153.16,349.29 153.23,349.17 153.31,349.06 153.4,348.94 153.49,348.84 153.58,348.73 153.68,348.63 153.79,348.53 153.9,348.43 154.02,348.33 154.14,348.24 154.27,348.15 154.41,348.06 154.56,347.98 154.71,347.9 154.88,347.82 155.05,347.74 155.23,347.66 155.43,347.59 155.63,347.51 155.85,347.44 156.07,347.38 156.31,347.31 156.57,347.24 156.84,347.18 157.12,347.12 157.42,347.06 157.73,347.0 158.06,346.94 158.42,346.89 158.79,346.84 159.18,346.78 159.59,346.73 160.03,346.68 160.48,346.63 160.97,346.59 161.48,346.54 162.02,346.5 162.59,346.45 163.19,346.41 163.82,346.37 164.49,346.33 165.19,346.29 165.93,346.25 166.71,346.21 167.53,346.18 168.4,346.14 169.31,346.11 170.27,346.07 171.28,346.04 172.35,346.01 173.47,345.98 174.65,345.95 175.89,345.92 177.19,345.89 178.56,345.86 180.0,345.83 181.51,345.8 183.1,345.78 184.77,345.75 186.52,345.73 188.35,345.7 190.28,345.68 192.3,345.66 194.41,345.63 196.63,345.61 198.94,345.59 201.37,345.57 203.91,345.55 206.56,345.53 209.32,345.51 212.21,345.49 215.23,345.47 218.37,345.45 221.65,345.43 225.06,345.41 228.6,345.4 232.29,345.38 236.12,345.36 240.09,345.35 244.21,345.33 248.47,345.32 252.89,345.3 257.45,345.29 262.17,345.27 267.03,345.26 272.04,345.25 277.2,345.23 282.51,345.22 287.95,345.21 293.54,345.2 299.26,345.19 305.11,345.17 311.09,345.16 317.18,345.15 323.39,345.14 329.71,345.13 336.12,345.12 342.62,345.12 349.21,345.11 355.86,345.1 362.57,345.09 369.33,345.08 376.13,345.08 382.95,345.07 389.78,345.06 396.62,345.06 403.45,345.05 410.25,345.05 417.01,345.04 423.73,345.04 430.38,345.03 436.97,345.03 443.46,345.02 449.86,345.02 456.15,345.02 462.33,345.01 468.37,345.01 474.28,345.01 480.05,345.0 485.66,345.0 491.12,345.0 496.41,345.0 501.52,345.0 506.47,345.0 511.24,344.99 515.82,344.99 520.23,344.99 524.45,344.99 528.49,344.99 532.34,344.99 536.02,344.99 539.52,344.99 542.84,344.99 545.99,344.99 548.96,344.99 551.78,344.99 554.43,344.99 556.92,344.99 559.27,344.99 561.47,344.99 563.53,344.99 565.46,344.99 567.26,344.99 568.93,344.99 570.49,344.99 571.95,344.99 573.29,344.99 574.54,344.99 575.69,344.99 576.76,344.99 577.75,344.99 578.66,344.99 579.49,344.99 580.26,344.99 580.97,344.99 581.62,344.99 582.21,345.0 582.76,345.0 583.26,345.0 583.71,345.0 584.13,345.0 584.51,345.0 584.85,345.0 585.17,345.0 585.45,345.0 585.71,345.0 585.95,345.0 586.17,345.0 586.36,345.0 586.54,345.0 586.7,345.0 586.84,345.0 586.98,345.0 587.09,345.0 587.2,345.0 587.3,345.0 587.39,345.0 587.47,345.0 587.54,345.0 587.6,345.0 587.66,345.0 587.71,345.0 587.76,345.0 587.8,345.0 587.84,345.0 587.88,345.0 587.91,345.0 587.94,345.0 587.96,345.0 587.98,345.0 588.0,345.0 588.02,345.0 588.04,345.0 588.05,345.0 588.07,345.0 588.08,345.0 588.09,345.0 588.1,345.0 588.11,345.0 588.11,345.0 588.12,345.0 588.13,345.0 588.13,345.0 588.14,345.0 588.14,345.0 588.15,345.0 588.15,345.0 588.15,345.0 588.16,345.0 588.16,345.0 588.16,345.0 588.16,345.0 588.17,345.0 588.17,345.0 588.17,345.0 588.17,345.0 588.17,345.0 588.17,345.0 588.17,345.0 588.17,345.0 588.18,345.0 588.18,345.0 588.18,345.0 588.18,345.0 588.18,345.0 588.18,345.0 588.18,345.0 588.18,345.0 588.18,345.0 588.18,345.0 588.18,345.0 588.18,345.0 588.18,345.0 588.18,345.0 588.18,345.0 588.18,345.0 588.18,345.0 588.18,345.0 588.18,345.0 588.18,345.0 588.18,345.0 588.18,345.0 588.18,345.0 588.18,345.0 588.18,345.0 588.18,345.0 588.18,345.0 588.18,345.0 588.18,345.0 588.18,345.0 588.18,345.0 588.18,345.0 588.18,345.0 588.18,345.0 588.18,345.0 588.18,345.0 588.18,345.0 588.18,345.0 588.18,345.0 588.18,345.0 588.18,345.0 588.18,345.0 588.18,345.0 588.18,345.0 588.18,345.0 588.18,345.0 588.18,345.0 588.18,345.0 588.18,345.0 588.18,345.0 588.18,345.0 588.18,345.0 588.18,345.0 588.18,345.0 588.18,345.0 588.18,345.0 588.18,345.0 588.18,345.0 588.18,345.0 588.18,345.0 588.18,345.0 588.18,345.0 588.18,345.0 588.18,345.0 588.18,345.0 588.18,345.0 588.18,345.0 588.18,345.0 588.18,345.0 588.18,345.0 588.18,345.0 588.18,345.0 588.18,345.0 588.18,345.0 588.18,345.0 588.18,345.0 588.18,345.0 588.18,345.0 588.18,345.0 588.18,345.0 588.18,345.0 588.18,345.0 588.18,345.0 588.18,345.0 588.18,345.0 588.18,345.0 588.18,345.0 588.18,345.0 588.18,345.0 588.18,345.0 588.18,345.0 588.18,345.0 588.18,345.0 588.18,345.0 588.18,345.0 588.18,345.0 588.18,345.0 588.18,345.0 588.18,345.0 588.18,345.0 588.18,345.0 588.18,345.0 588.18,345.0 588.18,345.0 588.18,345.0 588.18,345.0 588.18,345.0 588.18,345.0 588.18,345.0 588.18,345.0 588.18,345.0 588.18,345.0 588.18,345.0 588.18,345.0 588.18,345.0 588.18,345.0 588.18,345.0 588.18,345.0 588.18,345.0 588.18,345.0 588.18,345.0 588.18,345.0 588.18,345.0 588.18,345.0 588.18,345.0 588.18,345.0 588.18,345.0 588.18,345.0 588.18,345.0 588.18,345.0 588.18,345.0 588.18,345.0 588.18,345.0 588.18,345.0 588.18,345.0 588.18,345.0 588.18,345.0 588.18,345.0" fill="none" stroke="#1f77b4" stroke-width="2.0" stroke-linecap="round" stroke-linejoin="round"/>
<polyline points="151.82,131.36 151.82,137.2 151.82,142.87 151.82,148.39 151.82,153.76 151.82,158.98 151.82,164.06 151.82,169.0 151.82,173.81 151.82,178.48 151.82,183.03 151.82,187.45 151.82,191.76 151.82,195.94 151.82,200.01 151.82,203.97 151.82,207.82 151.82,211.57 151.82,215.21 151.82,218.75 151.82,222.2 151.82,225.55 151.82,228.82 151.82,231.99 151.82,235.08 151.82,238.08 151.82,241.0 151.82,243.84 151.82,246.6 151.82,249.29 151.82,251.9 151.82,254.44 151.82,256.92 151.82,259.32 151.82,261.66 151.82,263.94 151.82,266.15 151.82,268.3 151.82,270.4 151.82,272.43 151.82,274.42 151.82,276.34 151.82,278.22 151.82,280.04 151.82,281.82 151.82,283.54 151.82,285.22 151.82,286.85 151.83,288.44 151.83,289.98 151.83,291.49 151.83,292.95 151.83,294.37 151.83,295.75 151.83,297.1 151.83,298.41 151.83,299.68 151.83,300.92 151.83,302.12 151.83,303.29 151.83,304.43 151.83,305.54 151.83,306.62 151.84,307.66 151.84,308.68 151.84,309.67 151.84,310.64 151.84,311.58 151.84,312.49 151.84,313.38 151.84,314.24 151.85,315.08 151.85,315.9 151.85,316.69 151.85,317.47 151.85,318.22 151.85,318.95 151.86,319.66 151.86,320.35 151.86,321.03 151.86,321.68 151.87,322.32 151.87,322.94 151.87,323.54 151.87,324.13 151.88,324.7 151.88,325.25 151.89,325.79 151.89,326.32 151.89,326.83 151.9,327.32 151.9,327.81 151.91,328.28 151.91,328.73 151.92,329.18 151.92,329.61 151.93,330.03 151.93,330.44 151.94,330.84 151.95,331.22 151.96,331.6 151.96,331.97 151.97,332.32 151.98,332.67 151.99,333.01 152.0,333.33 152.01,333.65 152.02,333.96 152.03,334.27 152.05,334.56 152.06,334.84 152.07,335.12 152.09,335.39 152.1,335.66 152.12,335.91 152.14,336.16 152.15,336.4 152.17,336.64 152.19,336.87 152.21,337.09 152.24,337.31 152.26,337.52 152.29,337.72 152.31,337.92 152.34,338.11 152.37,338.3 152.4,338.49 152.43,338.66 152.47,338.84 152.51,339.01 152.55,339.17 152.59,339.33 152.63,339.49 152.68,339.64 152.73,339.79 152.78,339.93 152.83,340.07 152.89,340.2 152.95,340.34 153.02,340.46 153.08,340.59 153.16,340.71 153.23,340.83 153.31,340.94 153.4,341.06 153.49,341.16 153.58,341.27 153.68,341.37 153.79,341.47 153.9,341.57 154.02,341.67 154.14,341.76 154.27,341.85 154.41,341.94 154.56,342.02 154.71,342.1 154.88,342.18 155.05,342.26 155.23,342.34 155.43,342.41 155.63,342.49 155.85,342.56 156.07,342.62 156.31,342.69 156.57,342.76 156.84,342.82 157.12,342.88 157.42,342.94 157.73,343.0 158.06,343.06 158.42,343.11 158.79,343.16 159.18,343.22 159.59,343.27 160.03,343.32 160.48,343.37 160.97,343.41 161.48,343.46 162.02,343.5 162.59,343.55 163.19,343.59 163.82,343.63 164.49,343.67 165.19,343.71 165.93,343.75 166.71,343.79 167.53,343.82 168.4,343.86 169.31,343.89 170.27,343.93 171.28,343.96 172.35,343.99 173.47,344.02 174.65,344.05 175.89,344.08 177.19,344.11 178.56,344.14 180.0,344.17 181.51,344.2 183.1,344.22 184.77,344.25 186.52,344.27 188.35,344.3 190.28,344.32 192.3,344.34 194.41,344.37 196.63,344.39 198.94,344.41 201.37,344.43 203.91,344.45 206.56,344.47 209.32,344.49 212.21,344.51 215.23,344.53 218.37,344.55 221.65,344.57 225.06,344.59 228.6,344.6 232.29,344.62 236.12,344.64 240.09,344.65 244.21,344.67 248.47,344.68 252.89,344.7 257.45,344.71 262.17,344.73 267.03,344.74 272.04,344.75 277.2,344.77 282.51,344.78 287.95,344.79 293.54,344.8 299.26,344.81 305.11,344.83 311.09,344.84 317.18,344.85 323.39,344.86 329.71,344.87 336.12,344.88 342.62,344.88 349.21,344.89 355.86,344.9 362.57,344.91 369.33,344.92 376.13,344.92 382.95,344.93 389.78,344.94 396.62,344.94 403.45,344.95 410.25,344.95 417.01,344.96 423.73,344.96 430.38,344.97 436.97,344.97 443.46,344.98 449.86,344.98 456.15,344.98 462.33,344.99 468.37,344.99 474.28,344.99 480.05,345.0 485.66,345.0 491.12,345.0 496.41,345.0 501.52,345.0 506.47,345.0 511.24,345.01 515.82,345.01 520.23,345.01 524.45,345.01 528.49,345.01 532.34,345.01 536.02,345.01 539.52,345.01 542.84,345.01 545.99,345.01 548.96,345.01 551.78,345.01 554.43,345.01 556.92,345.01 559.27,345.01 561.47,345.01 563.53,345.01 565.46,345.01 567.26,345.01 568.93,345.01 570.49,345.01 571.95,345.01 573.29,345.01 574.54,345.01 575.69,345.01 576.76,345.01 577.75,345.01 578.66,345.01 579.49,345.01 580.26,345.01 580.97,345.01 581.62,345.01 582.21,345.0 582.76,345.0 583.26,345.0 583.71,345.0 584.13,345.0 584.51,345.0 584.85,345.0 585.17,345.0 585.45,345.0 585.71,345.0 585.95,345.0 586.17,345.0 586.36,345.0 586.54,345.0 586.7,345.0 586.84,345.0 586.98,345.0 587.09,345.0 587.2,345.0 587.3,345.0 587.39,345.0 587.47,345.0 587.54,345.0 587.6,345.0 587.66,345.0 587.71,345.0 587.76,345.0 587.8,345.0 587.84,345.0 587.88,345.0 587.91,345.0 587.94,345.0 587.96,345.0 587.98,345.0 588.0,345.0 588.02,345.0 588.04,345.0 588.05,345.0 588.07,345.0 588.08,345.0 588.09,345.0 588.1,345.0 588.11,345.0 588.11,345.0 588.12,345.0 588.13,345.0 588.13,345.0 588.14,345.0 588.14,345.0 588.15,345.0 588.15,345.0 588.15,345.0 588.16,345.0 588.16,345.0 588.16,345.0 588.16,345.0 588.17,345.0 588.17,345.0 588.17,345.0 588.17,345.0 588.17,345.0 588.17,345.0 588.17,345.0 588.17,345.0 588.18,345.0 588.18,345.0 588.18,345.0 588.18,345.0 588.18,345.0 588.18,345.0 588.18,345.0 588.18,345.0 588.18,345.0 588.18,345.0 588.18,345.0 588.18,345.0 588.18,345.0 588.18,345.0 588.18,345.0 588.18,345.0 588.18,345.0 588.18,345.0 588.18,345.0 588.18,345.0 588.18,345.0 588.18,345.0 588.18,345.0 588.18,345.0 588.18,345.0 588.18,345.0 588.18,345.0 588.18,345.0 588.18,345.0 588.18,345.0 588.18,345.0 588.18,345.0 588.18,345.0 588.18,345.0 588.18,345.0 588.18,345.0 588.18,345.0 588.18,345.0 588.18,345.0 588.18,345.0 588.18,345.0 588.18,345.0 588.18,345.0 588.18,345.0 588.18,345.0 588.18,345.0 588.18,345.0 588.18,345.0 588.18,345.0 588.18,345.0 588.18,345.0 588.18,345.0 588.18,345.0 588.18,345.0 588.18,345.0 588.18,345.0 588.18,345.0 588.18,345.0 588.18,345.0 588.18,345.0 588.18,345.0 588.18,345.0 588.18,345.0 588.18,345.0 588.18,345.0 588.18,345.0 588.18,345.0 588.18,345.0 588.18,345.0 588.18,345.0 588.18,345.0 588.18,345.0 588.18,345.0 588.18,345.0 588.18,345.0 588.18,345.0 588.18,345.0 588.18,345.0 588.18,345.0 588.18,345.0 588.18,345.0 588.18,345.0 588.18,345.0 588.18,345.0 588.18,345.0 588.18,345.0 588.18,345.0 588.18,345.0 588.18,345.0 588.18,345.0 588.18,345.0 588.18,345.0 588.18,345.0 588.18,345.0 588.18,345.0 588.18,345.0 588.18,345.0 588.18,345.0 588.18,345.0 588.18,345.0 588.18,345.0 588.18,345.0 588.18,345.0 588.18,345.0 588.18,345.0 588.18,345.0 588.18,345.0 588.18,345.0 588.18,345.0 588.18,345.0 588.18,345.0 588.18,345.0 588.18,345.0 588.18,345.0 588.18,345.0 588.18,345.0 588.18,345.0 588.18,345.0 588.18,345.0 588.18,345.0 588.18,345.0 588.18,345.0 588.18,345.0 588.18,345.0 588.18,345.0 588.18,345.0 588.18,345.0 588.18,345.0 588.18,345.0 588.18,345.0 588.18,345.0 588.18,345.0 588.18,345.0 588.18,345.0 588.18,345.0 588.18,345.0 588.18,345.0 588.18,345.0" fill="none" stroke="#1f77b4" stroke-width="1.4" stroke-opacity="0.60" stroke-dasharray="6,4" stroke-linecap="round" stroke-linejoin="round"/>
<polygon points="157.87,366.46 145.87,360.46 145.87,372.46" fill="#1f77b4" stroke="#1f77b4" stroke-width="1.0" stroke-linecap="round" stroke-linejoin="round"/>
<polygon points="163.12,347.12 151.12,341.12 151.12,353.12" fill="#1f77b4" stroke="#1f77b4" stroke-width="1.0" stroke-linecap="round" stroke-linejoin="round"/>
<polygon points="423.01,345.04 411.01,339.04 411.01,351.04" fill="#1f77b4" stroke="#1f77b4" stroke-width="1.0" stroke-linecap="round" stroke-linejoin="round"/>
<polygon points="594.02,345.0 582.02,339.0 582.02,351.0" fill="#1f77b4" stroke="#1f77b4" stroke-width="1.0" stroke-linecap="round" stroke-linejoin="round"/>
<polygon points="594.18,345.0 582.18,339.0 582.18,351.0" fill="#1f77b4" stroke="#1f77b4" stroke-width="1.0" stroke-linecap="round" stroke-linejoin="round"/>
<line x1="277.27" y1="345.0" x2="317.27" y2="345.0" stroke="#ff0000" stroke-width="1.0" stroke-linecap="round" stroke-linejoin="round"/>
<line x1="297.27" y1="325.0" x2="297.27" y2="365.0" stroke="#ff0000" stroke-width="1.0" stroke-linecap="round" stroke-linejoin="round"/>
<polyline points="130.0,345.0 610.0,345.0" fill="none" stroke="#000000" stroke-width="0.5" stroke-dasharray="6,4" stroke-linecap="round" stroke-linejoin="round"/>
<polyline points="588.18,580.0 588.18,110.0" fill="none" stroke="#000000" stroke-width="0.5" stroke-dasharray="6,4" stroke-linecap="round" stroke-linejoin="round"/>
<circle cx="151.82" cy="558.64" r="12.5" fill="#008000" stroke="#008000" stroke-width="1.0" stroke-linecap="round" stroke-linejoin="round"/>
</g>
<text x="340.91" y="344.98" font-family="Arial, sans-serif" font-size="10.0" font-weight="normal" font-style="normal" fill="#ff0000" text-anchor="start" dominant-baseline="alphabetic">(-1, j0)</text>
<text x="166.36" y="558.63" font-family="STIX Two Math, Cambria Math, serif" font-size="9.0" font-weight="normal" font-style="normal" fill="#008000" text-anchor="start" dominant-baseline="alphabetic">ω→0</text>
<rect x="500.0" y="120.0" width="100.0" height="44.0" fill="#ffffff" fill-opacity="0.80" stroke="#c8c8c8" stroke-width="1.0" stroke-linecap="round" stroke-linejoin="round"/>
<line x1="508.0" y1="133.0" x2="528.0" y2="133.0" stroke="#1f77b4" stroke-width="2.0" stroke-linecap="round" stroke-linejoin="round"/>
<text x="533.0" y="133.0" font-family="Arial, sans-serif" font-size="10.0" font-weight="normal" font-style="normal" fill="#000000" text-anchor="start" dominant-baseline="middle">\omega &gt; 0</text>
<line x1="508.0" y1="147.0" x2="528.0" y2="147.0" stroke="#1f77b4" stroke-width="1.4" stroke-opacity="0.60" stroke-dasharray="6,4" stroke-linecap="round" stroke-linejoin="round"/>
<text x="533.0" y="147.0" font-family="Arial, sans-serif" font-size="10.0" font-weight="normal" font-style="normal" fill="#000000" text-anchor="start" dominant-baseline="middle">\omega &lt; 0</text>
</svg>